<?xml version="1.0" encoding="UTF-8"?>
<svg xmlns="http://www.w3.org/2000/svg" xmlns:xlink="http://www.w3.org/1999/xlink" width="23px" height="23px" viewBox="0 0 23 22" version="1.1">
<g id="surface1">
<path style=" stroke:none;fill-rule:nonzero;fill:rgb(7.058824%,7.058824%,7.058824%);fill-opacity:1;" d="M 11.78125 22.035156 C 7.867188 22.035156 3.953125 22.035156 0.0390625 22.035156 C 0.0390625 14.703125 0.0390625 7.371094 0.0390625 0.0390625 C 7.699219 0.0390625 15.363281 0.0390625 23.03125 0.0390625 C 23.03125 7.367188 23.03125 14.703125 23.03125 22.035156 C 19.40625 22.035156 15.777344 22.035156 12.121094 22.027344 C 12.136719 21.96875 12.179688 21.917969 12.226562 21.871094 C 12.914062 21.199219 13.597656 20.527344 14.289062 19.859375 C 14.390625 19.761719 14.425781 19.667969 14.425781 19.53125 C 14.425781 16.152344 14.425781 12.769531 14.425781 9.390625 C 14.425781 9.316406 14.425781 9.246094 14.425781 9.175781 C 14.4375 9.175781 14.453125 9.175781 14.464844 9.175781 C 14.835938 10.070312 15.207031 10.964844 15.589844 11.894531 C 15.90625 11.320312 16.195312 10.789062 16.484375 10.253906 C 16.5 10.257812 16.511719 10.261719 16.527344 10.261719 C 16.527344 12.71875 16.527344 15.175781 16.527344 17.660156 C 16.578125 17.617188 16.601562 17.601562 16.625 17.582031 C 17.445312 16.777344 18.269531 15.976562 19.085938 15.167969 C 19.132812 15.121094 19.160156 15.03125 19.160156 14.964844 C 19.164062 12.730469 19.164062 10.5 19.160156 8.269531 C 19.160156 8.191406 19.113281 8.097656 19.058594 8.039062 C 18.773438 7.742188 18.480469 7.449219 18.179688 7.167969 C 17.617188 6.644531 17.042969 6.136719 16.484375 5.628906 C 16.296875 5.976562 16.074219 6.386719 15.839844 6.824219 C 15.804688 6.761719 15.789062 6.730469 15.777344 6.695312 C 15.347656 5.683594 14.921875 4.671875 14.488281 3.660156 C 14.449219 3.570312 14.394531 3.476562 14.324219 3.40625 C 13.523438 2.609375 12.714844 1.820312 11.90625 1.027344 C 11.878906 1.003906 11.84375 0.984375 11.78125 0.941406 C 11.78125 1.035156 11.78125 1.097656 11.78125 1.164062 C 11.78125 2.199219 11.78125 3.234375 11.78125 4.269531 C 11.78125 10.191406 11.78125 16.113281 11.78125 22.035156 M 6.679688 7.773438 C 7.289062 7.175781 7.894531 6.578125 8.542969 5.941406 C 8.542969 6.527344 8.542969 7.0625 8.542969 7.601562 C 9.429688 7.601562 10.296875 7.601562 11.164062 7.601562 C 11.164062 5.09375 11.164062 2.601562 11.164062 0.0859375 C 11.121094 0.121094 11.09375 0.136719 11.074219 0.15625 C 10.390625 0.824219 9.703125 1.496094 9.015625 2.167969 C 7.308594 3.839844 5.601562 5.507812 3.894531 7.175781 C 3.804688 7.261719 3.765625 7.347656 3.765625 7.46875 C 3.769531 9.640625 3.769531 11.8125 3.765625 13.984375 C 3.765625 14.125 3.8125 14.21875 3.910156 14.3125 C 4.421875 14.808594 4.921875 15.3125 5.433594 15.804688 C 5.75 16.109375 6.082031 16.402344 6.414062 16.703125 C 6.414062 15.105469 6.414062 13.492188 6.414062 11.867188 C 8.011719 11.867188 9.585938 11.867188 11.167969 11.867188 C 11.167969 11.152344 11.167969 10.457031 11.167969 9.738281 C 9.578125 9.738281 7.996094 9.738281 6.410156 9.738281 C 6.410156 9.269531 6.425781 8.824219 6.402344 8.378906 C 6.390625 8.132812 6.453125 7.9375 6.679688 7.773438 M 20.730469 13.558594 C 21.394531 12.917969 22.054688 12.273438 22.730469 11.617188 C 21.984375 10.929688 21.246094 10.25 20.550781 9.609375 C 20.550781 10.921875 20.550781 12.308594 20.550781 13.722656 C 20.617188 13.664062 20.664062 13.621094 20.730469 13.558594 M 1.652344 9.351562 C 1.175781 9.800781 0.695312 10.25 0.199219 10.71875 C 0.964844 11.425781 1.695312 12.101562 2.40625 12.757812 C 2.40625 11.417969 2.40625 10.039062 2.40625 8.605469 C 2.136719 8.871094 1.902344 9.101562 1.652344 9.351562 Z M 1.652344 9.351562 "/>
<path style=" stroke:none;fill-rule:nonzero;fill:rgb(99.215686%,99.215686%,99.215686%);fill-opacity:1;" d="M 11.796875 22.035156 C 11.78125 16.113281 11.78125 10.191406 11.78125 4.269531 C 11.78125 3.234375 11.78125 2.199219 11.78125 1.164062 C 11.78125 1.097656 11.78125 1.035156 11.78125 0.941406 C 11.84375 0.984375 11.878906 1.003906 11.90625 1.027344 C 12.714844 1.820312 13.523438 2.609375 14.324219 3.40625 C 14.394531 3.476562 14.449219 3.570312 14.488281 3.660156 C 14.921875 4.671875 15.347656 5.683594 15.777344 6.695312 C 15.789062 6.730469 15.804688 6.761719 15.839844 6.824219 C 16.074219 6.386719 16.296875 5.976562 16.484375 5.628906 C 17.042969 6.136719 17.617188 6.644531 18.179688 7.167969 C 18.480469 7.449219 18.773438 7.742188 19.058594 8.039062 C 19.113281 8.097656 19.160156 8.191406 19.160156 8.269531 C 19.164062 10.5 19.164062 12.730469 19.160156 14.964844 C 19.160156 15.03125 19.132812 15.121094 19.085938 15.167969 C 18.269531 15.976562 17.445312 16.777344 16.625 17.582031 C 16.601562 17.601562 16.578125 17.617188 16.527344 17.660156 C 16.527344 15.175781 16.527344 12.71875 16.527344 10.261719 C 16.511719 10.261719 16.5 10.257812 16.484375 10.253906 C 16.195312 10.789062 15.90625 11.320312 15.589844 11.894531 C 15.207031 10.964844 14.835938 10.070312 14.464844 9.175781 C 14.453125 9.175781 14.4375 9.175781 14.425781 9.175781 C 14.425781 9.246094 14.425781 9.316406 14.425781 9.390625 C 14.425781 12.769531 14.425781 16.152344 14.425781 19.53125 C 14.425781 19.667969 14.390625 19.761719 14.289062 19.859375 C 13.597656 20.527344 12.914062 21.199219 12.226562 21.871094 C 12.179688 21.917969 12.136719 21.96875 12.101562 22.027344 C 12.015625 22.035156 11.914062 22.035156 11.796875 22.035156 Z M 11.796875 22.035156 "/>
<path style=" stroke:none;fill-rule:nonzero;fill:rgb(99.215686%,99.215686%,99.215686%);fill-opacity:1;" d="M 6.671875 7.785156 C 6.453125 7.9375 6.390625 8.132812 6.402344 8.378906 C 6.425781 8.824219 6.410156 9.269531 6.410156 9.738281 C 7.996094 9.738281 9.578125 9.738281 11.167969 9.738281 C 11.167969 10.457031 11.167969 11.152344 11.167969 11.867188 C 9.585938 11.867188 8.011719 11.867188 6.414062 11.867188 C 6.414062 13.492188 6.414062 15.105469 6.414062 16.703125 C 6.082031 16.402344 5.75 16.109375 5.433594 15.804688 C 4.921875 15.3125 4.421875 14.808594 3.910156 14.3125 C 3.8125 14.21875 3.765625 14.125 3.765625 13.984375 C 3.769531 11.8125 3.769531 9.640625 3.765625 7.46875 C 3.765625 7.347656 3.804688 7.261719 3.894531 7.175781 C 5.601562 5.507812 7.308594 3.839844 9.015625 2.167969 C 9.703125 1.496094 10.390625 0.824219 11.074219 0.15625 C 11.09375 0.136719 11.121094 0.121094 11.164062 0.0859375 C 11.164062 2.601562 11.164062 5.09375 11.164062 7.601562 C 10.296875 7.601562 9.429688 7.601562 8.542969 7.601562 C 8.542969 7.0625 8.542969 6.527344 8.542969 5.941406 C 7.894531 6.578125 7.289062 7.175781 6.671875 7.785156 Z M 6.671875 7.785156 "/>
<path style=" stroke:none;fill-rule:nonzero;fill:rgb(98.431373%,98.431373%,98.431373%);fill-opacity:1;" d="M 20.722656 13.566406 C 20.664062 13.621094 20.617188 13.664062 20.550781 13.722656 C 20.550781 12.308594 20.550781 10.921875 20.550781 9.609375 C 21.246094 10.25 21.984375 10.929688 22.730469 11.617188 C 22.054688 12.273438 21.394531 12.917969 20.722656 13.566406 Z M 20.722656 13.566406 "/>
<path style=" stroke:none;fill-rule:nonzero;fill:rgb(98.823529%,98.823529%,98.823529%);fill-opacity:1;" d="M 1.660156 9.34375 C 1.902344 9.101562 2.136719 8.871094 2.40625 8.605469 C 2.40625 10.039062 2.40625 11.417969 2.40625 12.757812 C 1.695312 12.101562 0.964844 11.425781 0.199219 10.71875 C 0.695312 10.25 1.175781 9.800781 1.660156 9.34375 Z M 1.660156 9.34375 "/>
</g>
</svg>
